<svg width="209" height="34" viewBox="0 0 209 34" fill="none" xmlns="http://www.w3.org/2000/svg">
<path d="M90.6942 20.8194V16.9038C90.6942 16.3672 90.5887 15.8624 90.3776 15.3894C90.1757 14.9073 89.8959 14.489 89.538 14.1342C89.1801 13.7795 88.758 13.5021 88.2717 13.302C87.7945 13.0928 87.2852 12.9882 86.7438 12.9882C86.2024 12.9882 85.6885 13.0928 85.2022 13.302C84.725 13.5021 84.3075 13.7795 83.9496 14.1342C83.5917 14.489 83.3073 14.9073 83.0962 15.3894C82.8943 15.8624 82.7934 16.3672 82.7934 16.9038V20.8194H90.6942ZM94.6446 28.637H90.6942V24.7214H82.7934V28.637H78.8568V16.9038C78.8568 15.8214 79.0632 14.8073 79.4762 13.8614C79.8891 12.9063 80.4488 12.0741 81.1554 11.3647C81.8712 10.6552 82.7062 10.0958 83.6606 9.68654C84.6241 9.27724 85.6518 9.07259 86.7438 9.07259C87.8358 9.07259 88.8589 9.27724 89.8133 9.68654C90.7768 10.0958 91.6164 10.6552 92.3322 11.3647C93.0479 12.0741 93.6123 12.9063 94.0252 13.8614C94.4382 14.8073 94.6446 15.8214 94.6446 16.9038V28.637Z" fill="#040C8B"/>
<path d="M101.431 28.637H97.6728V14.0251H98.5813L99.8201 15.7578C100.426 15.212 101.114 14.7937 101.885 14.5026C102.656 14.2024 103.454 14.0524 104.28 14.0524H107.597V17.7633H104.28C103.885 17.7633 103.514 17.8361 103.165 17.9816C102.816 18.1271 102.513 18.3272 102.256 18.5819C101.999 18.8366 101.798 19.1367 101.651 19.4824C101.504 19.828 101.431 20.1964 101.431 20.5875V28.637Z" fill="#040C8B"/>
<path d="M116.737 28.637C115.828 28.637 114.975 28.4687 114.176 28.1322C113.378 27.7866 112.676 27.3181 112.07 26.7269C111.474 26.1266 111.001 25.4308 110.653 24.6395C110.313 23.8482 110.143 23.0023 110.143 22.1019V17.7633H108.313V14.0524H110.143V8.21307H113.887V14.0524H119.586V17.7633H113.887V22.1019C113.887 22.493 113.961 22.8613 114.108 23.207C114.254 23.5435 114.456 23.8391 114.713 24.0938C114.97 24.3485 115.273 24.5531 115.622 24.7077C115.97 24.8533 116.342 24.926 116.737 24.926H119.586V28.637H116.737Z" fill="#040C8B"/>
<path d="M145.793 22.7704C145.793 23.5799 145.637 24.3394 145.325 25.0488C145.013 25.7583 144.587 26.3813 144.045 26.9179C143.513 27.4455 142.889 27.8639 142.173 28.1731C141.458 28.4824 140.691 28.637 139.875 28.637H130.006V9.07259H139.875C140.691 9.07259 141.458 9.22721 142.173 9.53646C142.889 9.84571 143.513 10.2686 144.045 10.8053C144.587 11.3328 145.013 11.9513 145.325 12.6608C145.637 13.3702 145.793 14.1297 145.793 14.9392C145.793 15.303 145.743 15.6759 145.642 16.0579C145.541 16.4399 145.399 16.8083 145.215 17.163C145.032 17.5177 144.812 17.8406 144.555 18.1317C144.298 18.4227 144.013 18.6638 143.701 18.8548C144.022 19.0276 144.311 19.2641 144.568 19.5642C144.825 19.8553 145.046 20.1782 145.229 20.5329C145.413 20.8876 145.55 21.2605 145.642 21.6516C145.743 22.0337 145.793 22.4066 145.793 22.7704ZM133.956 24.7214H139.875C140.15 24.7214 140.407 24.6713 140.646 24.5713C140.884 24.4712 141.091 24.3348 141.265 24.162C141.448 23.9801 141.591 23.7709 141.692 23.5344C141.793 23.2979 141.843 23.0433 141.843 22.7704C141.843 22.4975 141.793 22.2429 141.692 22.0064C141.591 21.7699 141.448 21.5652 141.265 21.3924C141.091 21.2105 140.884 21.0695 140.646 20.9695C140.407 20.8694 140.15 20.8194 139.875 20.8194H133.956V24.7214ZM133.956 16.9038H139.875C140.15 16.9038 140.407 16.8538 140.646 16.7537C140.884 16.6537 141.091 16.5172 141.265 16.3444C141.448 16.1625 141.591 15.9533 141.692 15.7168C141.793 15.4713 141.843 15.212 141.843 14.9392C141.843 14.6663 141.793 14.4116 141.692 14.1752C141.591 13.9387 141.448 13.734 141.265 13.5612C141.091 13.3793 140.884 13.2383 140.646 13.1383C140.407 13.0382 140.15 12.9882 139.875 12.9882H133.956V16.9038Z" fill="#040C8B"/>
<path d="M162.627 21.2014C162.627 22.2929 162.43 23.3116 162.036 24.2575C161.641 25.1943 161.104 26.0084 160.425 26.6996C159.746 27.3818 158.948 27.923 158.03 28.3232C157.122 28.7143 156.144 28.9098 155.098 28.9098C154.061 28.9098 153.084 28.7143 152.166 28.3232C151.258 27.923 150.46 27.3818 149.771 26.6996C149.092 26.0084 148.556 25.1943 148.161 24.2575C147.766 23.3116 147.569 22.2929 147.569 21.2014C147.569 20.0918 147.766 19.064 148.161 18.1181C148.556 17.1721 149.092 16.3581 149.771 15.6759C150.46 14.9847 151.258 14.4435 152.166 14.0524C153.084 13.6613 154.061 13.4657 155.098 13.4657C156.144 13.4657 157.122 13.6522 158.03 14.0251C158.948 14.3889 159.746 14.9119 160.425 15.5941C161.104 16.2671 161.641 17.0812 162.036 18.0362C162.43 18.9821 162.627 20.0372 162.627 21.2014ZM158.842 21.2014C158.842 20.6011 158.741 20.0599 158.539 19.5779C158.347 19.0867 158.081 18.6683 157.741 18.3227C157.402 17.968 157.002 17.6997 156.544 17.5177C156.094 17.3267 155.612 17.2312 155.098 17.2312C154.584 17.2312 154.098 17.3267 153.639 17.5177C153.19 17.6997 152.795 17.968 152.455 18.3227C152.125 18.6683 151.864 19.0867 151.671 19.5779C151.478 20.0599 151.382 20.6011 151.382 21.2014C151.382 21.7653 151.478 22.2883 151.671 22.7704C151.864 23.2525 152.125 23.6708 152.455 24.0256C152.795 24.3803 153.19 24.6623 153.639 24.8714C154.098 25.0715 154.584 25.1716 155.098 25.1716C155.612 25.1716 156.094 25.0761 156.544 24.8851C157.002 24.6941 157.402 24.4258 157.741 24.0801C158.081 23.7345 158.347 23.3161 158.539 22.825C158.741 22.3338 158.842 21.7926 158.842 21.2014Z" fill="#040C8B"/>
<path d="M178.952 21.2014C178.952 22.2929 178.755 23.3116 178.36 24.2575C177.966 25.1943 177.429 26.0084 176.75 26.6996C176.071 27.3818 175.272 27.923 174.355 28.3232C173.446 28.7143 172.469 28.9098 171.423 28.9098C170.386 28.9098 169.409 28.7143 168.491 28.3232C167.583 27.923 166.784 27.3818 166.096 26.6996C165.417 26.0084 164.88 25.1943 164.486 24.2575C164.091 23.3116 163.894 22.2929 163.894 21.2014C163.894 20.0918 164.091 19.064 164.486 18.1181C164.88 17.1721 165.417 16.3581 166.096 15.6759C166.784 14.9847 167.583 14.4435 168.491 14.0524C169.409 13.6613 170.386 13.4657 171.423 13.4657C172.469 13.4657 173.446 13.6522 174.355 14.0251C175.272 14.3889 176.071 14.9119 176.75 15.5941C177.429 16.2671 177.966 17.0812 178.36 18.0362C178.755 18.9821 178.952 20.0372 178.952 21.2014ZM175.167 21.2014C175.167 20.6011 175.066 20.0599 174.864 19.5779C174.671 19.0867 174.405 18.6683 174.066 18.3227C173.726 17.968 173.327 17.6997 172.868 17.5177C172.419 17.3267 171.937 17.2312 171.423 17.2312C170.909 17.2312 170.423 17.3267 169.964 17.5177C169.514 17.6997 169.12 17.968 168.78 18.3227C168.45 18.6683 168.188 19.0867 167.996 19.5779C167.803 20.0599 167.707 20.6011 167.707 21.2014C167.707 21.7653 167.803 22.2883 167.996 22.7704C168.188 23.2525 168.45 23.6708 168.78 24.0256C169.12 24.3803 169.514 24.6623 169.964 24.8714C170.423 25.0715 170.909 25.1716 171.423 25.1716C171.937 25.1716 172.419 25.0761 172.868 24.8851C173.327 24.6941 173.726 24.4258 174.066 24.0801C174.405 23.7345 174.671 23.3161 174.864 22.825C175.066 22.3338 175.167 21.7926 175.167 21.2014Z" fill="#040C8B"/>
<path d="M184.816 28.637H181.031V8.21307H184.816V21.0923L190.418 14.0524H194.74L189.854 20.1372L194.74 28.637H190.418L187.431 23.3298L184.816 26.7679V28.637Z" fill="#040C8B"/>
<path d="M204.32 28.637H195.731V24.926H204.32C204.577 24.926 204.797 24.8351 204.981 24.6532C205.164 24.4712 205.256 24.253 205.256 23.9983C205.256 23.7345 205.164 23.5617 204.981 23.4798C204.797 23.398 204.577 23.357 204.32 23.357H200.411C199.759 23.357 199.149 23.2343 198.58 22.9887C198.011 22.7431 197.516 22.4111 197.094 21.9927C196.672 21.5652 196.337 21.0695 196.089 20.5056C195.85 19.9417 195.731 19.3368 195.731 18.6911C195.731 18.0453 195.85 17.4404 196.089 16.8765C196.337 16.3126 196.672 15.8214 197.094 15.403C197.516 14.9847 198.011 14.6572 198.58 14.4207C199.149 14.1752 199.759 14.0524 200.411 14.0524H208.023V17.7633H200.411C200.154 17.7633 199.934 17.8543 199.75 18.0362C199.567 18.2181 199.475 18.4364 199.475 18.6911C199.475 18.9548 199.567 19.1822 199.75 19.3732C199.934 19.5551 200.154 19.6461 200.411 19.6461H204.32C204.962 19.6461 205.568 19.7552 206.137 19.9735C206.706 20.1827 207.201 20.4783 207.624 20.8603C208.046 21.2423 208.381 21.7017 208.628 22.2383C208.876 22.7749 209 23.3616 209 23.9983C209 24.6441 208.876 25.2489 208.628 25.8128C208.381 26.3677 208.046 26.8588 207.624 27.2863C207.201 27.7047 206.706 28.0367 206.137 28.2823C205.568 28.5187 204.962 28.637 204.32 28.637Z" fill="#040C8B"/>
<path fill-rule="evenodd" clip-rule="evenodd" d="M35.0371 0.219055V33.9999H0L35.0371 0.219055Z" fill="#070B8C"/>
<path fill-rule="evenodd" clip-rule="evenodd" d="M53.2851 0.000358326C57.481 0.0265305 60.8774 3.40884 60.8774 7.57129C60.8774 11.7502 57.4521 15.1426 53.2381 15.1426H35.0369V0H53.2381L53.2851 0.000358326Z" fill="#FA1B91"/>
<path fill-rule="evenodd" clip-rule="evenodd" d="M60.5193 18.1495C64.9322 18.1495 68.5131 21.7003 68.5131 26.0739C68.5131 30.4476 64.9322 33.9984 60.5193 33.9984H35.0369V18.1495H60.5193Z" fill="#0048FF"/>
<path fill-rule="evenodd" clip-rule="evenodd" d="M28.2423 18.15H35.0366V15.142L28.2423 15.142L29.5841 16.646L28.2423 18.15Z" fill="#24FDED"/>
</svg>
