<svg width="40" height="40" viewBox="0 0 40 40" fill="none" xmlns="http://www.w3.org/2000/svg">
<path d="M20 33.3333C18.6667 32.2778 17.2222 31.4583 15.6667 30.875C14.1111 30.2917 12.5 30 10.8333 30C9.66667 30 8.52083 30.1528 7.39583 30.4583C6.27083 30.7639 5.19444 31.1945 4.16667 31.75C3.58333 32.0556 3.02083 32.0417 2.47917 31.7083C1.9375 31.375 1.66667 30.8889 1.66667 30.25V10.1667C1.66667 9.86112 1.74305 9.56945 1.89583 9.29168C2.04861 9.0139 2.27778 8.80557 2.58333 8.66668C3.86111 8.00001 5.19444 7.50001 6.58333 7.16668C7.97222 6.83334 9.38889 6.66668 10.8333 6.66668C12.4444 6.66668 14.0208 6.87501 15.5625 7.29168C17.1042 7.70834 18.5833 8.33334 20 9.16668V29.3333C21.4167 28.4445 22.9028 27.7778 24.4583 27.3333C26.0139 26.8889 27.5833 26.6667 29.1667 26.6667C30.1667 26.6667 31.1458 26.75 32.1042 26.9167C33.0625 27.0833 34.0278 27.3333 35 27.6667V7.66668C35.4167 7.80557 35.8264 7.9514 36.2292 8.10418C36.6319 8.25695 37.0278 8.44445 37.4167 8.66668C37.7222 8.80557 37.9514 9.0139 38.1042 9.29168C38.2569 9.56945 38.3333 9.86112 38.3333 10.1667V30.25C38.3333 30.8889 38.0625 31.375 37.5208 31.7083C36.9792 32.0417 36.4167 32.0556 35.8333 31.75C34.8056 31.1945 33.7292 30.7639 32.6042 30.4583C31.4792 30.1528 30.3333 30 29.1667 30C27.5 30 25.8889 30.2917 24.3333 30.875C22.7778 31.4583 21.3333 32.2778 20 33.3333ZM23.3333 25V9.16668L31.6667 0.833344V17.5L23.3333 25ZM16.6667 27.7083V11.2083C15.75 10.8195 14.7986 10.5208 13.8125 10.3125C12.8264 10.1042 11.8333 10 10.8333 10C9.80555 10 8.80555 10.0972 7.83333 10.2917C6.86111 10.4861 5.91667 10.7778 5 11.1667V27.7083C5.97222 27.3472 6.9375 27.0833 7.89583 26.9167C8.85417 26.75 9.83333 26.6667 10.8333 26.6667C11.8333 26.6667 12.8125 26.75 13.7708 26.9167C14.7292 27.0833 15.6944 27.3472 16.6667 27.7083Z" fill="#0048FF"/>
</svg>
