<svg width="17" height="20" viewBox="0 0 17 20" fill="none" xmlns="http://www.w3.org/2000/svg">
<path d="M9.5515 20L9.34439 17.199L8.35982 17.1931C6.03913 17.1466 4.06566 16.2869 2.43941 14.6142C0.813135 12.9415 0 10.9346 0 8.59365C0 6.21773 0.837405 4.19147 2.51221 2.51489C4.18701 0.838297 6.21208 0 8.58743 0C9.75898 0 10.8449 0.212813 11.8453 0.63844C12.8457 1.06408 13.7172 1.65904 14.46 2.42331C15.2028 3.18757 15.7855 4.08966 16.2081 5.12956C16.6308 6.16948 16.8421 7.30371 16.8421 8.53226C16.8421 10.7931 16.1873 12.9545 14.8776 15.0165C13.568 17.0785 11.7926 18.7397 9.5515 20ZM8.59321 14.2958C8.86657 14.2958 9.09769 14.2006 9.28658 14.0104C9.47546 13.8202 9.56991 13.5874 9.56991 13.3121C9.56991 13.0407 9.47546 12.8099 9.28658 12.6197C9.09769 12.4295 8.86657 12.3344 8.59321 12.3344C8.31987 12.3344 8.08875 12.4295 7.89984 12.6197C7.71096 12.8099 7.61651 13.0407 7.61651 13.3121C7.61651 13.5874 7.71096 13.8202 7.89984 14.0104C8.08875 14.2006 8.31987 14.2958 8.59321 14.2958ZM8.54485 10.9431C8.71376 10.9431 8.86349 10.8824 8.99403 10.761C9.12458 10.6396 9.21175 10.4818 9.25555 10.2877C9.30778 10.0643 9.41047 9.84806 9.56362 9.63894C9.71676 9.42984 9.94491 9.17459 10.248 8.87319C10.6871 8.42707 10.9963 8.02138 11.1756 7.65609C11.3548 7.29081 11.4445 6.8913 11.4445 6.45755C11.4445 5.70757 11.1977 5.09232 10.7041 4.61181C10.2105 4.13129 9.541 3.89103 8.69571 3.89103C8.11993 3.89103 7.59041 4.02171 7.10714 4.28305C6.62386 4.5444 6.23328 4.90624 5.9354 5.36858C5.82712 5.52634 5.80907 5.69108 5.88126 5.86278C5.95345 6.03448 6.08399 6.16091 6.2729 6.24209C6.41342 6.29467 6.56297 6.29467 6.72155 6.24209C6.88013 6.1895 7.01549 6.0905 7.12762 5.94509C7.3011 5.69311 7.51602 5.50914 7.77239 5.3932C8.02874 5.27726 8.30848 5.2193 8.61161 5.2193C9.0798 5.2193 9.44611 5.33118 9.71054 5.55494C9.97495 5.77869 10.1072 6.07956 10.1072 6.45755C10.1072 6.75436 10.0185 7.06008 9.84117 7.37473C9.66384 7.68936 9.35527 8.07626 8.91545 8.53543C8.58076 8.88871 8.338 9.18596 8.18714 9.42718C8.03627 9.66841 7.94278 9.95331 7.90669 10.2819C7.88671 10.4598 7.9399 10.6144 8.06623 10.7459C8.19257 10.8774 8.35211 10.9431 8.54485 10.9431Z" fill="#24FDED"/>
</svg>
