<svg width="18" height="18" viewBox="0 0 18 18" fill="none" xmlns="http://www.w3.org/2000/svg">
<path d="M12.9918 13.6329C11.9518 13.6329 10.9186 13.3776 9.89229 12.8671C8.86595 12.3565 7.94353 11.6925 7.12503 10.875C6.30652 10.0575 5.64199 9.13509 5.13143 8.10773C4.62088 7.08037 4.3656 6.0477 4.3656 5.00971C4.3656 4.82912 4.42754 4.67688 4.55142 4.553C4.67529 4.42913 4.82752 4.36719 5.00811 4.36719H6.78092C6.93343 4.36719 7.06308 4.41385 7.16989 4.50718C7.27671 4.60049 7.34682 4.72983 7.38021 4.89518L7.72211 6.44227C7.74506 6.5867 7.74244 6.71554 7.71427 6.82877C7.6861 6.942 7.63017 7.03844 7.54649 7.11809L6.53369 8.20887C6.99433 8.96571 7.4459 9.51721 8.01042 10.0765C8.57492 10.6358 9.25431 11.1207 9.96491 11.5098L10.9336 10.5255C11.0341 10.4185 11.1469 10.344 11.2717 10.302C11.3966 10.26 11.5261 10.2546 11.66 10.286L13.1033 10.6092C13.2623 10.6446 13.3905 10.7211 13.488 10.8385C13.5856 10.956 13.6343 11.0974 13.6343 11.2627V12.9874C13.6343 13.17 13.5724 13.3232 13.4485 13.4471C13.3246 13.571 13.1724 13.6329 12.9918 13.6329Z" fill="white"/>
<path d="M0.0304541 17.1518L1.20771 12.972C0.904783 12.3198 0.676407 11.6502 0.52258 10.9632C0.368738 10.2761 0.291817 9.5731 0.291817 8.8541C0.291817 7.62693 0.522843 6.47786 0.984894 5.4069C1.44693 4.33594 2.08023 3.39811 2.88478 2.59343C3.68933 1.78873 4.62699 1.15532 5.69777 0.693193C6.76853 0.231065 7.91739 0 9.14434 0C10.3713 0 11.5204 0.231026 12.5917 0.693077C13.6629 1.15513 14.601 1.78843 15.4059 2.59297C16.2108 3.39753 16.8444 4.33519 17.3066 5.40595C17.7689 6.47673 18 7.62559 18 8.85255C18 10.0795 17.7689 11.2286 17.3068 12.2998C16.8447 13.3711 16.2113 14.3092 15.4066 15.1141C14.6019 15.919 13.6641 16.5525 12.5931 17.0148C11.5221 17.477 10.3731 17.7082 9.14589 17.7082C8.42689 17.7082 7.72387 17.6313 7.03683 17.4774C6.34977 17.3236 5.68016 17.0952 5.02799 16.7923L0.848224 17.9695C0.59371 18.0412 0.375873 17.9864 0.194712 17.8053C0.0135673 17.6241 -0.0411854 17.4063 0.0304541 17.1518ZM1.28251 16.7175L4.41683 15.8372C4.49997 15.8123 4.57778 15.7906 4.65025 15.7722C4.72271 15.7538 4.79956 15.7446 4.88081 15.7446C5.04129 15.7446 5.19326 15.76 5.3367 15.7909C5.48015 15.8218 5.62315 15.8681 5.76569 15.9299C6.30382 16.152 6.85596 16.3287 7.4221 16.46C7.98823 16.5913 8.56246 16.6569 9.14478 16.6569C11.3123 16.6569 13.1548 15.8987 14.6724 14.3824C16.1899 12.8661 16.9487 11.024 16.9487 8.85598C16.9487 6.68797 16.1905 4.84518 14.6742 3.32762C13.1579 1.81007 11.3158 1.05129 9.14779 1.05129C6.97978 1.05129 5.137 1.80786 3.61944 3.321C2.10188 4.83415 1.34311 6.68085 1.34311 8.86107C1.34311 9.4468 1.39151 10.0257 1.48832 10.5977C1.58513 11.1696 1.77906 11.7152 2.0701 12.2343C2.1782 12.4457 2.23611 12.6693 2.24383 12.9051C2.25155 13.141 2.22452 13.367 2.16275 13.5832L1.28251 16.7175Z" fill="white"/>
</svg>
