<svg width="18" height="15" viewBox="0 0 18 15" fill="none" xmlns="http://www.w3.org/2000/svg">
<path d="M1.36642 14.7105C0.994905 14.7105 0.674291 14.5757 0.404575 14.3059C0.134858 14.0362 0 13.7156 0 13.3441V1.86642C0 1.4949 0.134858 1.17429 0.404575 0.904575C0.674291 0.634859 0.994905 0.5 1.36642 0.5H16.6336C17.0051 0.5 17.3257 0.634859 17.5954 0.904575C17.8651 1.17429 18 1.4949 18 1.86642V13.3441C18 13.7156 17.8651 14.0362 17.5954 14.3059C17.3257 14.5757 17.0051 14.7105 16.6336 14.7105H1.36642ZM16.9251 2.50402L9.37895 7.49776C9.31579 7.52933 9.25506 7.55697 9.19677 7.58065C9.13846 7.60433 9.07287 7.61618 9 7.61618C8.92713 7.61618 8.86154 7.60433 8.80323 7.58065C8.74493 7.55697 8.68725 7.52933 8.63017 7.49776L1.07489 2.50402V13.3441C1.07489 13.4291 1.10222 13.499 1.15688 13.5536C1.21155 13.6083 1.28139 13.6356 1.36642 13.6356H16.6336C16.7186 13.6356 16.7885 13.6083 16.8431 13.5536C16.8978 13.499 16.9251 13.4291 16.9251 13.3441V2.50402ZM9 6.61964L16.712 1.57489H1.31173L9 6.61964ZM1.07489 2.67891V1.93491V1.95857V1.57489V1.94654V1.91582V2.67891Z" fill="white"/>
</svg>
