<svg width="24" height="24" viewBox="0 0 24 24" fill="none" xmlns="http://www.w3.org/2000/svg">
<path d="M8.80444 21C8.36403 21 7.98702 20.8433 7.67339 20.53C7.35977 20.2167 7.20296 19.84 7.20296 19.4C7.20296 18.96 7.35977 18.5833 7.67339 18.27C7.98702 17.9567 8.36403 17.8 8.80444 17.8C9.24485 17.8 9.62186 17.9567 9.93548 18.27C10.2491 18.5833 10.4059 18.96 10.4059 19.4C10.4059 19.84 10.2491 20.2167 9.93548 20.53C9.62186 20.8433 9.24485 21 8.80444 21ZM16.8118 21C16.3714 21 15.9944 20.8433 15.6808 20.53C15.3672 20.2167 15.2104 19.84 15.2104 19.4C15.2104 18.96 15.3672 18.5833 15.6808 18.27C15.9944 17.9567 16.3714 17.8 16.8118 17.8C17.2522 17.8 17.6293 17.9567 17.9429 18.27C18.2565 18.5833 18.4133 18.96 18.4133 19.4C18.4133 19.84 18.2565 20.2167 17.9429 20.53C17.6293 20.8433 17.2522 21 16.8118 21ZM8.12381 8.2L10.0456 12.2H15.6508L17.8528 8.2H8.12381ZM7.36311 6.6H19.174C19.481 6.6 19.7145 6.73667 19.8747 7.01C20.0348 7.28333 20.0415 7.56 19.8947 7.84L17.0521 12.96C16.9053 13.2267 16.7084 13.4333 16.4615 13.58C16.2146 13.7267 15.9444 13.8 15.6508 13.8H9.68525L8.80444 15.4H18.4133V17H8.80444C8.20388 17 7.75013 16.7367 7.44318 16.21C7.13623 15.6833 7.12289 15.16 7.40314 14.64L8.48414 12.68L5.60148 6.6H4V5H6.6024L7.36311 6.6Z" fill="#E8EAED"/>
</svg>
